<svg width="18" height="19" viewBox="0 0 18 19" fill="none" xmlns="http://www.w3.org/2000/svg">
<g clip-path="url(#clip0_245_396)">
<mask id="mask0_245_396" style="mask-type:luminance" maskUnits="userSpaceOnUse" x="0" y="0" width="18" height="19">
<path d="M9 18.3376C13.9706 18.3376 18 14.3082 18 9.33765C18 4.36708 13.9706 0.337646 9 0.337646C4.02944 0.337646 0 4.36708 0 9.33765C0 14.3082 4.02944 18.3376 9 18.3376Z" fill="white"/>
</mask>
<g mask="url(#mask0_245_396)">
<path d="M0 18.3376H5.87109L7.20352 9.18647L5.87109 0.337646H0V18.3376Z" fill="#6DA544"/>
<path d="M18 0.337524H5.87109V18.3375H18V0.337524Z" fill="#D80027"/>
<path d="M5.87109 12.4664C7.59914 12.4664 9 11.0656 9 9.33752C9 7.60948 7.59914 6.20862 5.87109 6.20862C4.14305 6.20862 2.74219 7.60948 2.74219 9.33752C2.74219 11.0656 4.14305 12.4664 5.87109 12.4664Z" fill="#FFDA44"/>
<path d="M4.10986 7.77305V9.72422C4.10986 10.1909 4.29525 10.6384 4.62523 10.9684C4.95521 11.2984 5.40277 11.4838 5.86943 11.4838C6.3361 11.4838 6.78365 11.2984 7.11364 10.9684C7.44362 10.6384 7.629 10.1909 7.629 9.72422V7.76953H4.11338L4.10986 7.77305Z" fill="#D80027"/>
<path d="M5.87104 10.3149C5.54761 10.3149 5.28394 10.0512 5.28394 9.72776V8.95081H6.45815V9.72424C6.45815 10.0477 6.19448 10.3114 5.87104 10.3114V10.3149Z" fill="#EEEEEE"/>
</g>
</g>
<defs>
<clipPath id="clip0_245_396">
<rect width="18" height="18" fill="white" transform="translate(0 0.337646)"/>
</clipPath>
</defs>
</svg>
