<svg width="20" height="21" viewBox="0 0 20 21" fill="none" xmlns="http://www.w3.org/2000/svg">
<g clip-path="url(#clip0_245_406)">
<mask id="mask0_245_406" style="mask-type:luminance" maskUnits="userSpaceOnUse" x="0" y="0" width="20" height="21">
<path d="M10 20.6753C15.5228 20.6753 20 16.1981 20 10.6753C20 5.15245 15.5228 0.675293 10 0.675293C4.47715 0.675293 0 5.15245 0 10.6753C0 16.1981 4.47715 20.6753 10 20.6753Z" fill="white"/>
</mask>
<g mask="url(#mask0_245_406)">
<path d="M0 0.675293L0.3125 1.53467L0 2.43311V3.33154L1.25 5.44092L0 7.55029V8.80029L1.25 10.6753L0 12.5503V13.8003L1.25 15.9097L0 18.019V20.6753L0.859375 20.3628L1.75781 20.6753H2.65625L4.76562 19.4253L6.875 20.6753H8.125L10 19.4253L11.875 20.6753H13.125L15.2344 19.4253L17.3438 20.6753H20L19.6875 19.8159L20 18.9175V18.019L18.75 15.9097L20 13.8003V12.5503L18.75 10.6753L20 8.80029V7.55029L18.75 5.44092L20 3.33154V0.675293L19.1406 0.987793L18.2422 0.675293H17.3438L15.2344 1.92529L13.125 0.675293H11.875L10 1.92529L8.125 0.675293H6.875L4.76562 1.92529L2.65625 0.675293H0Z" fill="#EEEEEE"/>
<path d="M13.125 0.675293V4.89404L17.3438 0.675293H13.125ZM20 3.33154L15.7812 7.55029H20V3.33154ZM0 7.55029H4.21875L0 3.33154V7.55029ZM2.65625 0.675293L6.875 4.89404V0.675293H2.65625ZM6.875 20.6753V16.4565L2.65625 20.6753H6.875ZM0 18.019L4.21875 13.8003H0V18.019ZM20 13.8003H15.7812L20 18.019V13.8003ZM17.3438 20.6753L13.125 16.4565V20.6753H17.3438Z" fill="#0052B4"/>
<path d="M0 0.675293V2.43311L5.11719 7.55029H6.875L0 0.675293ZM8.125 0.675293V8.80029H0V12.5503H8.125V20.6753H11.875V12.5503H20V8.80029H11.875V0.675293H8.125ZM18.2422 0.675293L13.125 5.79248V7.55029L20 0.675293H18.2422ZM6.875 13.8003L0 20.6753H1.75781L6.875 15.5581V13.8003ZM13.125 13.8003L20 20.6753V18.9175L14.8828 13.8003H13.125Z" fill="#D80027"/>
</g>
</g>
<defs>
<clipPath id="clip0_245_406">
<rect width="20" height="20" fill="white" transform="translate(0 0.675293)"/>
</clipPath>
</defs>
</svg>
