<svg width="1024" height="1024" viewBox="0 0 1024 1024" fill="none" xmlns="http://www.w3.org/2000/svg">
<rect width="1024" height="1024" fill="#EB212D"/>
<rect x="54" y="316.995" width="521" height="651" fill="white"/>
<g clip-path="url(#clip0_595_305)">
<path d="M-64.1828 190.144C-71.1245 192.563 -77.1197 196.455 -83.0097 202.45C-87.322 206.973 -92.8964 216.859 -92.8964 220.12C-92.8964 220.961 -93.3171 222.013 -93.9482 222.329C-94.6845 222.749 -95 353.486 -95 611.173V999.282L-91.7395 1006.22C-87.7427 1014.43 -77.9611 1024.63 -69.652 1028.94L-63.9724 1031.89L325.923 1031.68C609.694 1031.68 716.766 1031.26 719.29 1030.41C728.02 1027.47 738.117 1018.63 743.691 1009.06C748.95 1000.12 748.845 1002.96 749.055 832.048C749.161 743.909 748.845 671.651 748.319 671.335C747.898 671.02 729.808 670.81 708.141 670.915C681.321 670.915 668.489 670.599 668.068 669.863C667.648 669.232 667.437 651.036 667.437 629.369L667.542 589.927L665.123 589.822C663.861 589.717 645.981 589.612 625.471 589.401C604.961 589.191 587.817 588.981 587.291 588.981C586.871 588.875 586.66 570.785 586.765 548.592L587.081 508.414L627.364 508.098L667.542 507.888V467.92V427.952H665.228C663.861 427.847 646.507 427.847 626.418 427.952C606.434 427.952 589.29 427.742 588.343 427.321C586.66 426.69 586.555 423.325 586.555 386.302V345.913H627.049H667.542V306.051C667.542 269.869 667.753 266.188 669.33 265.557C670.277 265.136 688.262 264.926 709.193 265.031C730.229 265.031 747.898 264.821 748.53 264.4C750.212 263.348 749.792 237.369 747.899 226.536C746.005 215.702 743.481 209.812 737.591 203.186C732.122 196.875 725.916 192.879 717.923 190.249C711.717 188.356 708.983 188.146 690.156 188.356L669.12 188.671L668.594 227.062C668.279 248.202 667.858 265.557 667.753 265.662C667.122 266.398 588.974 265.872 587.922 265.136C586.871 264.505 586.555 255.144 586.345 226.431L586.029 188.671L263.658 188.461C-43.1471 188.251 -59.029 188.356 -64.1828 190.144ZM342.752 327.402C367.784 333.292 387.347 353.065 394.079 379.465C396.708 389.878 396.708 397.135 394.184 408.179C391.449 419.854 388.189 426.901 380.932 436.577C371.676 448.883 357.056 458.559 342.331 461.82C334.969 463.503 319.402 463.503 311.514 461.715C291.635 457.402 274.386 443.834 264.604 424.587C261.554 418.697 257.347 401.237 257.347 394.611C257.347 382.936 262.501 366.949 270.284 354.643C277.647 343.073 295.211 330.978 309.831 327.612C313.407 326.771 316.773 325.719 317.194 325.403C318.245 324.246 335.179 325.614 342.752 327.402ZM210.017 350.436C213.172 351.488 220.535 353.802 226.32 355.59C232.104 357.378 237.363 359.271 237.889 359.692C238.52 360.007 241.676 361.164 244.936 362.111C251.562 364.004 253.666 366.213 251.773 369.578C251.142 370.735 250.09 374.732 249.459 378.413C247.881 387.564 246.829 388.09 236.627 384.409C202.234 372.103 202.97 372.208 151.853 372.208C104.628 372.208 103.997 372.103 100.211 366.739C98.3176 364.004 98.0021 357.273 99.6849 354.222C100.211 353.065 102.314 351.172 104.102 350.015C107.363 348.017 109.151 347.912 155.85 348.227C199.184 348.543 204.863 348.753 210.017 350.436ZM552.057 352.014C555.002 354.853 555.527 356.116 555.422 360.112C555.317 365.792 552.582 369.263 546.798 370.946C544.273 371.787 527.655 372.313 498.205 372.629C471.385 372.839 452.032 373.365 449.823 374.101C447.825 374.627 442.566 376.099 438.149 377.256C433.731 378.413 425.527 381.358 419.848 383.777C410.381 387.774 409.54 387.985 407.226 386.512C405.859 385.565 404.597 383.567 404.281 381.464C404.071 379.57 403.124 375.258 402.388 371.997C401.126 366.423 401.231 365.792 402.809 364.635C403.86 363.899 413.326 360.533 423.844 357.167C434.362 353.802 443.933 350.541 445.09 350.12C449.192 348.332 452.032 348.227 499.993 348.332L548.691 348.543L552.057 352.014ZM266.077 445.412C278.909 459.19 294.265 468.446 309.936 472.022C316.142 473.495 335.705 473.495 342.752 472.022C356.951 469.182 371.781 460.768 385.244 447.831L394.079 439.417L421.636 439.838C437.202 440.048 451.611 440.784 454.556 441.415C462.445 443.203 474.54 449.724 480.22 455.194C487.056 461.715 492.21 470.024 495.471 479.911L498.311 488.115L497.89 600.34C497.574 711.514 497.574 712.565 495.26 721.611C491.895 734.968 490.212 739.701 484.322 751.692C472.963 775.041 455.608 794.289 434.257 807.542C423.844 814.063 416.377 817.428 401.441 822.477C387.873 827 383.561 827.631 383.561 824.686C383.666 782.088 382.509 716.667 381.563 712.986C374.2 683.852 346.854 665.34 318.561 670.284C305.939 672.492 297.315 677.015 287.744 686.586C278.488 695.842 275.017 702.048 272.072 714.564C270.074 722.978 269.969 727.29 269.969 775.041V826.579H267.129C263.027 826.579 240.939 819.006 230.632 814.063C219.799 809.014 205.599 798.812 195.923 789.24C183.617 777.04 170.996 757.792 165.316 742.331C159.847 727.501 157.323 718.14 156.271 708.989C155.64 702.468 155.324 660.818 155.535 592.031L155.85 485.275L158.374 478.438C159.847 474.652 161.845 470.339 162.897 468.762C163.949 467.289 164.79 465.712 164.79 465.291C164.79 464.87 166.684 462.241 169.103 459.401C174.572 452.88 185.721 445.517 193.714 443.203C197.185 442.152 201.182 440.995 202.654 440.469C204.127 440.048 217.695 439.627 232.946 439.627L260.608 439.522L266.077 445.412ZM335.705 680.486C352.533 683.536 365.681 695.842 371.045 713.196C372.938 719.507 373.043 724.556 373.043 823.423V927.024L370.414 934.282C366.943 944.063 362.21 950.9 354.847 956.474C345.907 963.206 338.86 965.625 326.975 965.625C312.881 965.73 304.783 962.364 294.58 952.267C286.482 944.379 283.326 938.173 281.433 926.498C280.907 923.343 280.486 875.382 280.486 819.953V719.192L283.221 711.093C287.323 698.577 294.37 690.373 305.729 684.588C315.09 679.75 324.661 678.382 335.705 680.486ZM147.541 725.608C149.434 725.608 157.428 746.959 156.06 748.326C154.798 749.693 126.716 748.642 123.245 747.274C120.195 745.907 116.408 740.438 116.408 737.177C116.408 734.653 119.564 729.289 121.878 727.711C124.191 726.239 140.073 724.451 144.281 725.187C145.437 725.397 146.91 725.608 147.541 725.608ZM540.908 729.078C544.799 733.601 544.484 741.489 540.382 745.697L537.332 748.747H517.769C504.201 748.747 498.205 748.431 498.205 747.59C498.205 745.486 503.78 728.237 504.832 726.87C505.673 725.818 509.67 725.502 522.186 725.818L538.383 726.133L540.908 729.078Z" fill="#EB212D"/>
<path d="M694.568 56.9603C694.3 58.1221 694.032 73.3137 694.032 90.8288C694.032 119.067 694.21 122.821 695.462 123.268C696.266 123.536 711.279 123.804 728.883 123.804C753.458 123.804 761.054 123.536 761.59 122.642C762.037 122.106 762.305 106.557 762.126 88.2373L761.858 54.9944H728.526H695.104L694.568 56.9603Z" fill="white"/>
<path d="M863.821 75.7269C863.374 81.3568 863.464 142.838 863.821 143.553C864.447 144.447 929.771 144.804 930.754 143.821C931.647 143.017 931.737 80.0163 930.843 77.7823L929.949 75.5482H896.885C878.745 75.5482 863.821 75.6376 863.821 75.7269Z" fill="white"/>
<path d="M625.223 146.681C624.686 148.11 624.418 161.336 624.508 180.817L624.776 212.72L658.465 212.988L692.245 213.167L692.423 181.085C692.602 163.391 692.513 148.021 692.245 146.859L691.708 144.804L658.912 144.536L626.116 144.357L625.223 146.681Z" fill="white"/>
<path d="M780.088 154.724C779.194 155.082 778.926 162.677 778.926 188.146C778.926 219.87 779.016 221.21 780.624 222.104C782.501 223.087 842.91 223.444 845.412 222.461C846.574 222.014 846.752 217.635 846.842 188.503V155.082H815.833C798.675 155.082 783.931 154.903 782.948 154.635C781.965 154.456 780.624 154.456 780.088 154.724Z" fill="white"/>
<path d="M863.285 271.505C863.285 294.829 863.553 305.463 864.178 305.731C864.714 305.821 880.085 305.731 898.225 305.463L931.29 305.016L931.558 273.292C931.647 255.867 931.558 240.675 931.29 239.513L930.843 237.547H897.064H863.374L863.285 271.505Z" fill="white"/>
<path d="M604.119 519.229L672.302 519.229V451.277L603.94 451.724C603.94 451.724 603.761 519.14 604.119 519.229Z" fill="white"/>
<path d="M603.493 381.878H667.567V316.5H603.493V381.878Z" fill="white"/>
<path d="M733.261 303.658H698.361C698.361 303.658 698.499 289.36 698.767 271.398L699.214 238.781L717.087 238.512C733.083 238.334 735.406 238.512 740.678 240.121C747.47 242.355 752.742 245.751 757.389 251.113C762.394 256.742 764.538 261.747 766.147 270.951C767.755 280.156 768.113 302.228 766.683 303.122C766.147 303.479 751.134 303.658 733.261 303.658Z" fill="white"/>
<path d="M780.589 317.043C779.784 317.847 779.606 382.725 780.41 384.78C780.857 386.031 784.699 386.21 814.368 386.21H847.789V351.805V317.401H817.674C801.053 317.401 786.04 317.133 784.342 316.864C782.644 316.596 780.946 316.686 780.589 317.043Z" fill="white"/>
<path d="M694.032 420.399V454.268L701.002 454.804C713.155 455.787 761.054 455.072 762.037 453.911C762.573 453.285 762.752 440.149 762.662 419.953L762.394 386.978L728.258 386.71L694.032 386.531V420.399Z" fill="white"/>
<path d="M726.917 523.97L694.032 524.149V558.107V592.065H727.9C757.926 592.065 761.858 591.886 762.305 590.635C762.573 589.831 762.841 574.818 762.841 557.213C762.841 527.456 762.752 525.043 761.322 524.417C760.428 524.06 744.968 523.792 726.917 523.97Z" fill="white"/>
</g>
<defs>
<clipPath id="clip0_595_305">
<rect width="899.591" height="913.467" fill="white" transform="matrix(1 0 0 -1 32 968.461)"/>
</clipPath>
</defs>
</svg>
