<svg width="223" height="167" viewBox="0 0 223 167" fill="none" xmlns="http://www.w3.org/2000/svg">
<path d="M103.22 65.4973V50.5264H152.344L170.466 32.4041H84.8271L66.7041 50.5264L81.6764 65.4973H103.22Z" fill="#F1F2F2"/>
<path d="M120.161 98.4678L134.615 84.0139L122.402 71.8009H79.0634L62.2466 54.9827L44.9121 72.3192V126.169H70.9145V153.747H110.902V134.122L120.161 124.864V98.4678Z" fill="#F1F2F2" stroke="#F1F2F2"/>
<path d="M179.223 32.5593L154.953 56.8294H109.523V65.4966H125.011L152.59 93.0754H190.682V45.7985C190.68 42.5836 189.521 39.4768 187.417 37.0459C185.314 34.615 182.405 33.0224 179.224 32.5593" fill="#F1F2F2"/>
<path d="M38.6098 97.0149V69.7063L75.914 32.4036H26.0026C22.45 32.4037 19.043 33.8151 16.531 36.3271C14.0189 38.8391 12.6076 42.2461 12.6074 45.7987V97.0149H38.6098Z" fill="#E0212D"/>
<path d="M149.981 99.3784L139.073 88.4702L126.465 101.077V127.473L117.207 136.732V153.747H177.285C180.837 153.747 184.244 152.336 186.756 149.823C189.268 147.311 190.68 143.904 190.68 140.352V99.3784H149.981Z" fill="#F1F2F2"/>
<path d="M64.6115 132.472H38.6098V103.318H12.6074V140.352C12.6076 143.904 14.0189 147.311 16.531 149.823C19.043 152.335 22.45 153.747 26.0026 153.747H64.6115V132.472Z" fill="#F1F2F2"/>
<path d="M53.9939 22.1785C53.9939 20.2835 53.6207 18.4069 52.8955 16.6561C52.1703 14.9053 51.1073 13.3145 49.7673 11.9745C48.4273 10.6344 46.8364 9.57149 45.0856 8.84628C43.3348 8.12106 41.4583 7.7478 39.5632 7.7478C37.6681 7.7478 35.7916 8.12106 34.0408 8.84628C32.29 9.57149 30.6992 10.6344 29.3592 11.9745C28.0191 13.3145 26.9562 14.9053 26.231 16.6561C25.5058 18.4069 25.1325 20.2835 25.1325 22.1785C25.1325 22.1785 23.0994 37.4633 39.5622 49.6188C56.0284 37.4626 53.9939 22.1785 53.9939 22.1785Z" fill="#FF3939"/>
<path d="M40.1971 29.9871C38.5987 30.1171 36.9989 29.7535 35.6138 28.9453C34.2286 28.1372 33.1248 26.9234 32.4515 25.4679C31.7782 24.0124 31.5678 22.3853 31.8486 20.8064C32.1295 19.2275 32.8882 17.7728 34.0222 16.6389C35.1561 15.5049 36.6108 14.7462 38.1897 14.4653C39.7686 14.1845 41.3957 14.3949 42.8512 15.0682C44.3067 15.7415 45.5205 16.8453 46.3286 18.2305C47.1368 19.6156 47.5004 21.2154 47.3704 22.8138C47.2194 24.6659 46.4152 26.404 45.1013 27.718C43.7873 29.0319 42.0492 29.8361 40.1971 29.9871Z" fill="white"/>
<path d="M222.2 131.524C222.2 136.121 220.837 140.615 218.283 144.438C215.728 148.26 212.098 151.239 207.851 152.999C203.603 154.758 198.93 155.218 194.421 154.321C189.912 153.425 185.77 151.211 182.519 147.96C179.268 144.709 177.054 140.567 176.158 136.058C175.261 131.549 175.721 126.876 177.48 122.628C179.24 118.381 182.219 114.751 186.042 112.196C189.864 109.642 194.358 108.279 198.955 108.279C205.12 108.279 211.033 110.728 215.392 115.087C219.751 119.446 222.2 125.359 222.2 131.524Z" fill="#B4B4B4"/>
<path d="M215.371 148.527C215.371 150.105 214.903 151.647 214.026 152.959C213.15 154.271 211.904 155.294 210.446 155.898C208.988 156.502 207.384 156.66 205.837 156.352C204.289 156.044 202.867 155.284 201.752 154.169C200.636 153.053 199.876 151.631 199.568 150.084C199.26 148.536 199.419 146.932 200.022 145.474C200.626 144.017 201.649 142.771 202.961 141.894C204.273 141.017 205.816 140.55 207.394 140.55C209.509 140.55 211.538 141.39 213.034 142.886C214.53 144.382 215.37 146.411 215.371 148.527Z" fill="#B4B4B4"/>
<path d="M214.32 116.746C214.32 119.103 213.621 121.408 212.312 123.368C211.002 125.328 209.141 126.855 206.963 127.757C204.785 128.659 202.389 128.895 200.077 128.436C197.765 127.976 195.641 126.841 193.974 125.174C192.307 123.507 191.172 121.383 190.712 119.071C190.253 116.759 190.489 114.363 191.391 112.185C192.293 110.007 193.82 108.146 195.78 106.836C197.74 105.527 200.045 104.828 202.402 104.828C205.563 104.828 208.594 106.083 210.83 108.318C213.065 110.554 214.32 113.585 214.32 116.746Z" fill="#B4B4B4"/>
<path d="M207.433 148.51L205.45 144.213L200.926 146.303V134.675H196.198V139.21L190.104 136.809L188.372 141.207L196.202 144.291V164.619H200.93V151.515L207.433 148.51Z" fill="#8F5B31"/>
<path d="M37.3867 51.1514L49.3052 63.0699L41.3676 71.0123V129.714H64.1513C65.179 129.714 66.1645 130.123 66.8911 130.849C67.6178 131.576 68.0261 132.562 68.0262 133.589V155.388C68.0261 155.897 68.1263 156.401 68.3209 156.871C68.5155 157.341 68.8009 157.768 69.1606 158.127C69.5203 158.487 69.9473 158.772 70.4173 158.967C70.8873 159.162 71.391 159.262 71.8997 159.262H89.431" stroke="#63C856" stroke-miterlimit="10"/>
<path d="M151.969 126.903H138.678V123.785C138.678 123.577 138.718 123.372 138.798 123.18C138.877 122.988 138.994 122.814 139.14 122.667C139.287 122.521 139.461 122.404 139.653 122.325C139.845 122.245 140.05 122.204 140.258 122.204H150.388C150.808 122.204 151.21 122.371 151.506 122.667C151.802 122.964 151.969 123.366 151.969 123.785V126.903Z" fill="#F6DE00"/>
<path d="M182.927 148.262H94.4287V159.438H182.927V148.262Z" fill="#B4B4B4"/>
<path d="M114.769 159.439C114.769 160.793 114.367 162.116 113.615 163.242C112.863 164.368 111.794 165.246 110.543 165.764C109.292 166.282 107.915 166.418 106.587 166.154C105.259 165.89 104.039 165.238 103.081 164.28C102.124 163.323 101.472 162.103 101.208 160.775C100.944 159.447 101.079 158.07 101.597 156.819C102.116 155.568 102.993 154.499 104.119 153.747C105.245 152.994 106.569 152.593 107.923 152.593C109.739 152.593 111.48 153.314 112.763 154.598C114.047 155.882 114.768 157.623 114.769 159.439Z" fill="#404A69"/>
<path d="M115.471 159.438C115.471 160.932 115.028 162.393 114.198 163.635C113.368 164.877 112.189 165.845 110.809 166.417C109.429 166.988 107.91 167.138 106.445 166.846C104.98 166.555 103.634 165.836 102.577 164.779C101.521 163.723 100.802 162.377 100.51 160.912C100.219 159.447 100.369 157.928 100.94 156.548C101.512 155.168 102.48 153.988 103.722 153.158C104.964 152.328 106.424 151.885 107.918 151.885C109.921 151.885 111.843 152.681 113.259 154.098C114.675 155.514 115.471 157.435 115.471 159.438Z" fill="#404A69"/>
<path d="M112.325 159.438C112.325 160.31 112.067 161.161 111.583 161.885C111.099 162.61 110.411 163.174 109.606 163.508C108.802 163.841 107.916 163.928 107.062 163.758C106.207 163.588 105.423 163.169 104.807 162.553C104.191 161.937 103.771 161.152 103.601 160.298C103.431 159.443 103.519 158.558 103.852 157.753C104.185 156.948 104.75 156.26 105.474 155.776C106.198 155.292 107.05 155.034 107.921 155.034C108.499 155.034 109.072 155.148 109.606 155.369C110.141 155.591 110.626 155.915 111.035 156.324C111.444 156.733 111.769 157.219 111.99 157.753C112.211 158.287 112.325 158.86 112.325 159.438Z" fill="#323253"/>
<path d="M111.595 159.438C111.595 160.164 111.38 160.874 110.976 161.478C110.573 162.082 109.999 162.553 109.328 162.831C108.657 163.109 107.918 163.181 107.206 163.04C106.494 162.898 105.839 162.548 105.326 162.035C104.812 161.521 104.462 160.867 104.321 160.154C104.179 159.442 104.252 158.703 104.53 158.032C104.808 157.361 105.278 156.788 105.882 156.384C106.486 155.981 107.196 155.765 107.923 155.765C108.897 155.765 109.831 156.152 110.519 156.841C111.208 157.53 111.595 158.464 111.595 159.438Z" fill="#F1F2F2"/>
<path d="M187.054 156.821V145.142L185.242 143.933L184.531 141.316H182.323L171.019 127.833C170.632 127.372 170.149 127.001 169.605 126.745C169.06 126.489 168.467 126.354 167.865 126.35C156.504 126.275 131.46 126.381 125.379 126.41C124.46 126.411 123.572 126.736 122.869 127.327C118.78 130.739 108.322 140.713 108.322 140.713C102.609 142.616 94.9536 145.002 91.3698 146.873C90.4999 147.328 89.7394 147.967 89.1411 148.746C88.5429 149.524 88.1211 150.424 87.9051 151.382L86.5781 157.223L86.98 159.641H98.6698C98.6698 159.571 98.6588 159.507 98.6588 159.439C98.6588 156.982 99.6347 154.626 101.372 152.889C103.109 151.152 105.465 150.176 107.922 150.176C110.379 150.176 112.735 151.152 114.472 152.889C116.209 154.626 117.185 156.982 117.185 159.439C117.185 159.508 117.175 159.573 117.174 159.641H159.884C159.884 159.571 159.873 159.507 159.873 159.439C159.873 158.223 160.112 157.018 160.578 155.894C161.043 154.77 161.726 153.749 162.586 152.889C163.446 152.029 164.467 151.347 165.591 150.881C166.715 150.416 167.919 150.176 169.136 150.176C170.352 150.176 171.557 150.416 172.681 150.881C173.805 151.347 174.826 152.029 175.686 152.889C176.546 153.749 177.228 154.77 177.694 155.894C178.159 157.018 178.399 158.223 178.399 159.439C178.399 159.508 178.389 159.573 178.388 159.641H188.065L187.984 156.821H187.054Z" fill="#F6DE00"/>
<path d="M144.114 127.877H125.393L114.762 137.422C114.447 137.699 114.194 138.04 114.022 138.423C113.849 138.805 113.76 139.22 113.76 139.639C113.76 139.816 113.794 139.991 113.862 140.154C113.929 140.317 114.028 140.465 114.153 140.59C114.277 140.715 114.425 140.814 114.588 140.881C114.751 140.949 114.926 140.984 115.103 140.984H143.224C143.555 140.98 143.872 140.854 144.114 140.629V127.877Z" fill="white"/>
<path d="M172.697 137.422L164.639 127.877H147.89V140.23C147.999 140.454 148.168 140.643 148.379 140.776C148.59 140.91 148.834 140.981 149.083 140.983H172.356C172.712 140.983 173.054 140.841 173.306 140.589C173.558 140.337 173.7 139.995 173.7 139.639C173.7 139.219 173.611 138.804 173.438 138.422C173.265 138.04 173.013 137.698 172.698 137.421" fill="white"/>
<path d="M114.816 142.676H114.438C114.19 142.676 113.945 142.627 113.716 142.532C113.487 142.437 113.279 142.298 113.104 142.122C112.929 141.947 112.79 141.739 112.695 141.51C112.6 141.281 112.552 141.035 112.552 140.787V139.278C112.552 139.03 112.6 138.785 112.695 138.556C112.79 138.327 112.929 138.119 113.104 137.943C113.279 137.768 113.487 137.629 113.716 137.534C113.945 137.439 114.19 137.39 114.438 137.39H114.816V142.676Z" fill="black"/>
<path d="M104.29 159.892C104.396 160.78 104.825 161.598 105.493 162.191C106.162 162.785 107.025 163.112 107.919 163.112C108.813 163.112 109.676 162.785 110.345 162.191C111.014 161.598 111.442 160.78 111.549 159.892H104.29Z" fill="#D1DBE6"/>
<path d="M115.471 159.438C115.471 160.932 115.028 162.393 114.198 163.635C113.368 164.877 112.189 165.845 110.809 166.417C109.429 166.988 107.91 167.138 106.445 166.846C104.98 166.555 103.634 165.836 102.577 164.779C101.521 163.723 100.802 162.377 100.51 160.912C100.219 159.447 100.369 157.928 100.94 156.548C101.512 155.168 102.48 153.988 103.722 153.158C104.964 152.328 106.424 151.885 107.918 151.885C109.921 151.885 111.843 152.681 113.259 154.098C114.675 155.514 115.471 157.435 115.471 159.438Z" fill="black"/>
<path d="M111.595 159.438C111.595 160.164 111.38 160.874 110.976 161.478C110.573 162.082 109.999 162.553 109.328 162.831C108.657 163.109 107.918 163.181 107.206 163.04C106.494 162.898 105.839 162.548 105.326 162.035C104.812 161.521 104.462 160.867 104.321 160.154C104.179 159.442 104.252 158.703 104.53 158.032C104.808 157.361 105.278 156.788 105.882 156.384C106.486 155.981 107.196 155.765 107.923 155.765C108.897 155.765 109.831 156.152 110.519 156.841C111.208 157.53 111.595 158.464 111.595 159.438Z" fill="#F1F2F2"/>
<path d="M176.885 159.438C176.885 160.932 176.442 162.393 175.612 163.635C174.782 164.877 173.603 165.845 172.223 166.417C170.843 166.988 169.324 167.138 167.859 166.846C166.394 166.555 165.048 165.836 163.992 164.779C162.935 163.723 162.216 162.377 161.924 160.912C161.633 159.447 161.783 157.928 162.354 156.548C162.926 155.168 163.894 153.988 165.136 153.158C166.378 152.328 167.838 151.885 169.332 151.885C171.335 151.885 173.257 152.681 174.673 154.098C176.09 155.514 176.885 157.435 176.885 159.438Z" fill="black"/>
<path d="M173.01 159.438C173.01 160.164 172.795 160.874 172.391 161.478C171.988 162.082 171.414 162.553 170.743 162.831C170.072 163.109 169.334 163.181 168.621 163.04C167.909 162.898 167.254 162.548 166.741 162.035C166.227 161.521 165.877 160.867 165.736 160.154C165.594 159.442 165.667 158.703 165.945 158.032C166.223 157.361 166.693 156.788 167.297 156.384C167.901 155.981 168.611 155.765 169.338 155.765C170.312 155.765 171.246 156.152 171.934 156.841C172.623 157.53 173.01 158.464 173.01 159.438Z" fill="#F1F2F2"/>
<path d="M193.565 1.3454e-05L83.0273 24.3252L94.3541 75.796L204.892 51.4708L193.565 1.3454e-05Z" fill="#B4B4B4"/>
<path d="M103.535 43.1364L99.7748 45.1141C99.6732 45.1675 99.5588 45.1914 99.4444 45.1831C99.3301 45.1748 99.2203 45.1347 99.1275 45.0673C99.0347 44.9999 98.9626 44.9079 98.9194 44.8017C98.8762 44.6954 98.8636 44.5792 98.8829 44.4662L99.6015 40.2774C99.6181 40.1792 99.6106 40.0785 99.5799 39.9838C99.5491 39.889 99.4959 39.8032 99.4248 39.7334L96.3815 36.7698C96.2992 36.6897 96.2409 36.5882 96.2134 36.4767C96.1858 36.3653 96.1899 36.2483 96.2253 36.1391C96.2607 36.0299 96.3259 35.9328 96.4137 35.8587C96.5014 35.7846 96.6081 35.7366 96.7217 35.72L100.926 35.1102C101.025 35.0957 101.119 35.0575 101.2 34.9987C101.281 34.9399 101.346 34.8623 101.39 34.7727L103.27 30.9616C103.321 30.8587 103.399 30.772 103.496 30.7114C103.594 30.6508 103.706 30.6187 103.821 30.6187C103.935 30.6187 104.048 30.6508 104.145 30.7114C104.243 30.772 104.321 30.8587 104.372 30.9616L106.252 34.7727C106.296 34.8623 106.361 34.9399 106.442 34.9987C106.523 35.0575 106.616 35.0957 106.715 35.1102L110.92 35.72C111.034 35.7366 111.14 35.7846 111.228 35.8587C111.316 35.9328 111.381 36.0299 111.416 36.1391C111.452 36.2483 111.456 36.3653 111.428 36.4767C111.401 36.5882 111.342 36.6897 111.26 36.7698L108.217 39.7341C108.145 39.8036 108.092 39.8895 108.061 39.9843C108.03 40.079 108.023 40.1799 108.04 40.2781L108.759 44.4669C108.778 44.5799 108.765 44.6959 108.722 44.802C108.678 44.9081 108.606 45 108.514 45.0673C108.421 45.1346 108.311 45.1748 108.197 45.1832C108.083 45.1915 107.968 45.1679 107.867 45.1148L104.107 43.1371C104.019 43.0905 103.921 43.0662 103.821 43.0662C103.721 43.0662 103.623 43.0905 103.535 43.1371" fill="white"/>
<path d="M123.195 43.1364L119.435 45.114C119.333 45.1674 119.219 45.1913 119.105 45.1831C118.99 45.1748 118.88 45.1347 118.788 45.0673C118.695 44.9999 118.623 44.9078 118.58 44.8016C118.536 44.6954 118.524 44.5792 118.543 44.4662L119.262 40.2774C119.278 40.1792 119.271 40.0784 119.24 39.9837C119.209 39.889 119.156 39.8031 119.085 39.7334L116.042 36.769C115.959 36.6889 115.901 36.5874 115.874 36.476C115.846 36.3645 115.85 36.2476 115.885 36.1384C115.921 36.0292 115.986 35.932 116.074 35.858C116.162 35.7839 116.268 35.7358 116.382 35.7192L120.587 35.1094C120.685 35.095 120.779 35.0567 120.86 34.9979C120.941 34.9392 121.006 34.8616 121.05 34.772L122.93 30.9608C122.981 30.8579 123.059 30.7713 123.157 30.7107C123.254 30.65 123.366 30.6179 123.481 30.6179C123.596 30.6179 123.708 30.65 123.805 30.7107C123.903 30.7713 123.981 30.8579 124.032 30.9608L125.912 34.772C125.956 34.8616 126.021 34.9392 126.102 34.9979C126.183 35.0567 126.277 35.095 126.375 35.1094L130.58 35.7192C130.694 35.7358 130.8 35.7839 130.888 35.858C130.976 35.932 131.041 36.0292 131.076 36.1384C131.112 36.2476 131.116 36.3645 131.088 36.476C131.061 36.5874 131.003 36.6889 130.92 36.769L127.877 39.7334C127.806 39.8029 127.752 39.8887 127.721 39.9835C127.691 40.0783 127.683 40.1792 127.7 40.2774L128.419 44.4662C128.438 44.5792 128.426 44.6954 128.382 44.8016C128.339 44.9078 128.267 44.9999 128.174 45.0673C128.081 45.1347 127.972 45.1748 127.857 45.1831C127.743 45.1913 127.629 45.1674 127.527 45.114L123.767 43.1364C123.679 43.0898 123.581 43.0654 123.481 43.0654C123.381 43.0654 123.283 43.0898 123.195 43.1364Z" fill="white"/>
<path d="M142.857 43.1364L139.097 45.114C138.996 45.1674 138.881 45.1913 138.767 45.1831C138.652 45.1748 138.543 45.1347 138.45 45.0673C138.357 44.9999 138.285 44.9078 138.242 44.8016C138.198 44.6954 138.186 44.5792 138.205 44.4662L138.924 40.2774C138.94 40.1792 138.932 40.0786 138.901 39.9839C138.871 39.8893 138.818 39.8034 138.747 39.7334L135.704 36.769C135.621 36.6889 135.563 36.5874 135.536 36.476C135.508 36.3645 135.512 36.2476 135.548 36.1384C135.583 36.0292 135.648 35.932 135.736 35.858C135.824 35.7839 135.93 35.7358 136.044 35.7192L140.249 35.1094C140.348 35.095 140.441 35.0567 140.522 34.9979C140.603 34.9392 140.668 34.8616 140.712 34.772L142.592 30.9608C142.643 30.8579 142.721 30.7713 142.819 30.7107C142.916 30.65 143.028 30.6179 143.143 30.6179C143.258 30.6179 143.37 30.65 143.468 30.7107C143.565 30.7713 143.643 30.8579 143.694 30.9608L145.574 34.772C145.618 34.8616 145.683 34.9392 145.764 34.9979C145.845 35.0567 145.939 35.095 146.037 35.1094L150.242 35.7192C150.356 35.7361 150.462 35.7843 150.55 35.8584C150.637 35.9325 150.702 36.0295 150.738 36.1387C150.773 36.2478 150.777 36.3646 150.75 36.476C150.722 36.5873 150.664 36.6888 150.582 36.769L147.539 39.7334C147.468 39.8029 147.414 39.8887 147.383 39.9835C147.353 40.0783 147.345 40.1792 147.362 40.2774L148.081 44.4662C148.1 44.5791 148.087 44.6952 148.044 44.8013C148.001 44.9073 147.929 44.9992 147.836 45.0666C147.743 45.1339 147.634 45.174 147.519 45.1824C147.405 45.1908 147.291 45.1671 147.189 45.114L143.429 43.1364C143.341 43.0898 143.243 43.0654 143.143 43.0654C143.043 43.0654 142.945 43.0898 142.857 43.1364Z" fill="white"/>
<path d="M162.519 43.1363L158.759 45.1139C158.658 45.1671 158.543 45.1909 158.429 45.1826C158.315 45.1743 158.205 45.1342 158.112 45.0668C158.019 44.9995 157.947 44.9076 157.904 44.8014C157.86 44.6953 157.847 44.5791 157.866 44.4661L158.585 40.2773C158.601 40.1792 158.594 40.0787 158.563 39.9841C158.533 39.8895 158.481 39.8035 158.41 39.7333L155.367 36.7689C155.284 36.689 155.226 36.5877 155.198 36.4762C155.17 36.3648 155.174 36.2478 155.209 36.1385C155.245 36.0293 155.31 35.932 155.398 35.8579C155.485 35.7838 155.592 35.7357 155.706 35.7191L159.91 35.1093C160.009 35.0945 160.103 35.0561 160.184 34.9973C160.265 34.9386 160.331 34.8613 160.375 34.7719L162.254 30.9607C162.305 30.8579 162.383 30.7713 162.481 30.7108C162.578 30.6502 162.691 30.6182 162.805 30.6182C162.92 30.6182 163.033 30.6502 163.13 30.7108C163.228 30.7713 163.306 30.8579 163.357 30.9607L165.237 34.7719C165.281 34.8612 165.346 34.9386 165.426 34.9974C165.507 35.0562 165.6 35.0946 165.698 35.1093L169.903 35.7191C170.017 35.7357 170.124 35.7838 170.211 35.8579C170.299 35.9319 170.364 36.0291 170.4 36.1383C170.435 36.2475 170.439 36.3645 170.412 36.4759C170.384 36.5873 170.326 36.6888 170.243 36.7689L167.2 39.7333C167.129 39.8028 167.075 39.8886 167.044 39.9834C167.014 40.0782 167.006 40.1791 167.023 40.2773L167.742 44.4661C167.761 44.579 167.748 44.6951 167.705 44.8012C167.662 44.9072 167.59 44.9991 167.497 45.0665C167.404 45.1338 167.295 45.1739 167.18 45.1823C167.066 45.1907 166.952 45.167 166.85 45.1139L163.092 43.1363C163.003 43.0897 162.905 43.0653 162.805 43.0653C162.706 43.0653 162.607 43.0897 162.519 43.1363Z" fill="white"/>
<path d="M182.18 43.1364L178.42 45.114C178.319 45.1674 178.204 45.1913 178.09 45.1831C177.976 45.1748 177.866 45.1347 177.773 45.0673C177.68 44.9999 177.608 44.9078 177.565 44.8016C177.522 44.6954 177.509 44.5792 177.528 44.4662L178.247 40.2774C178.263 40.1792 178.255 40.0786 178.225 39.9839C178.194 39.8893 178.141 39.8034 178.07 39.7334L175.027 36.769C174.945 36.6889 174.886 36.5874 174.859 36.476C174.831 36.3645 174.835 36.2476 174.871 36.1384C174.906 36.0292 174.971 35.932 175.059 35.858C175.147 35.7839 175.254 35.7358 175.367 35.7192L179.572 35.1094C179.671 35.095 179.765 35.0567 179.845 34.9979C179.926 34.9392 179.991 34.8616 180.035 34.772L181.915 30.9608C181.966 30.8579 182.044 30.7713 182.142 30.7107C182.239 30.65 182.352 30.6179 182.466 30.6179C182.581 30.6179 182.693 30.65 182.791 30.7107C182.888 30.7713 182.967 30.8579 183.017 30.9608L184.897 34.772C184.941 34.8616 185.006 34.9392 185.087 34.9979C185.168 35.0567 185.262 35.095 185.361 35.1094L189.565 35.7192C189.679 35.7361 189.785 35.7843 189.873 35.8584C189.961 35.9325 190.026 36.0295 190.061 36.1387C190.096 36.2478 190.101 36.3646 190.073 36.476C190.046 36.5873 189.988 36.6888 189.906 36.769L186.865 39.7341C186.794 39.8036 186.74 39.8894 186.709 39.9842C186.679 40.079 186.671 40.1798 186.688 40.2781L187.407 44.4668C187.426 44.5798 187.413 44.6959 187.37 44.802C187.327 44.908 187.255 44.9999 187.162 45.0673C187.069 45.1346 186.96 45.1747 186.845 45.1831C186.731 45.1915 186.617 45.1678 186.515 45.1147L182.755 43.1371C182.667 43.0905 182.569 43.0661 182.469 43.0661C182.369 43.0661 182.271 43.0905 182.183 43.1371" fill="white"/>
<path d="M202.403 91.8928H198.267C198.098 91.893 197.932 91.86 197.777 91.7958C197.621 91.7316 197.48 91.6374 197.361 91.5187C197.242 91.3999 197.148 91.2588 197.083 91.1035C197.019 90.9482 196.985 90.7817 196.985 90.6136V86.4754C196.985 86.3072 197.019 86.1407 197.083 85.9853C197.147 85.8299 197.242 85.6888 197.361 85.5699C197.48 85.4511 197.621 85.3568 197.776 85.2926C197.932 85.2283 198.098 85.1954 198.267 85.1956H202.403C202.743 85.1957 203.068 85.3306 203.308 85.5706C203.548 85.8106 203.683 86.136 203.683 86.4754V90.6136C203.683 90.953 203.548 91.2784 203.308 91.5184C203.068 91.7584 202.743 91.8933 202.403 91.8935" fill="#D4D7DA"/>
<path d="M10.3429 32.206H6.20604C6.03788 32.2061 5.87134 32.1731 5.71595 32.1088C5.56055 32.0445 5.41933 31.9503 5.30036 31.8314C5.18138 31.7126 5.08698 31.5715 5.02255 31.4161C4.95811 31.2608 4.9249 31.0943 4.9248 30.9262V26.7886C4.9249 26.6205 4.95811 26.454 5.02255 26.2987C5.08698 26.1433 5.18138 26.0022 5.30036 25.8834C5.41933 25.7645 5.56055 25.6703 5.71595 25.606C5.87134 25.5417 6.03788 25.5087 6.20604 25.5088H10.3429C10.682 25.5092 11.0071 25.6442 11.2467 25.8842C11.4863 26.1242 11.6208 26.4495 11.6206 26.7886V30.9268C11.6208 31.266 11.4863 31.5913 11.2467 31.8313C11.0071 32.0713 10.682 32.2063 10.3429 32.2067" fill="#F1F2F2"/>
<path d="M209.495 102.527H205.358C205.19 102.527 205.024 102.494 204.868 102.43C204.713 102.366 204.571 102.272 204.453 102.153C204.334 102.034 204.239 101.893 204.175 101.737C204.11 101.582 204.077 101.416 204.077 101.247V97.1126C204.077 96.9444 204.11 96.7779 204.175 96.6225C204.239 96.4671 204.334 96.326 204.453 96.2071C204.571 96.0883 204.713 95.994 204.868 95.9298C205.024 95.8656 205.19 95.8326 205.358 95.8328H209.495C209.835 95.8329 210.16 95.9678 210.4 96.2078C210.64 96.4478 210.775 96.7732 210.775 97.1126V101.251C210.775 101.59 210.64 101.916 210.4 102.156C210.16 102.396 209.835 102.53 209.495 102.531" fill="#F1F2F2"/>
<path d="M5.41806 43.8278H1.28124C0.941736 43.828 0.616056 43.6934 0.375798 43.4535C0.135539 43.2136 0.000367376 42.8882 0 42.5487L0 38.4105C9.09729e-05 38.2423 0.0333033 38.0758 0.0977408 37.9205C0.162178 37.7651 0.256579 37.624 0.375553 37.5052C0.494527 37.3863 0.635744 37.2921 0.791141 37.2278C0.946539 37.1636 1.11307 37.1305 1.28124 37.1306H5.41806C5.75719 37.131 6.0823 37.266 6.32191 37.506C6.56152 37.746 6.69602 38.0713 6.69583 38.4105V42.5487C6.69602 42.8878 6.56152 43.2131 6.32191 43.4531C6.0823 43.6931 5.75719 43.8282 5.41806 43.8285" fill="#D4D7DA"/>
</svg>
